<?xml version="1.0" encoding="UTF-8" standalone="no"?>
<!DOCTYPE svg PUBLIC "-//W3C//DTD SVG 1.1//EN"
 "http://www.w3.org/Graphics/SVG/1.1/DTD/svg11.dtd">
<!-- Generated by graphviz version 2.40.1 (20161225.0304)
 -->
<!-- Title: dependencies Pages: 1 -->
<svg width="794pt" height="284pt"
 viewBox="0.00 0.00 794.00 284.00" xmlns="http://www.w3.org/2000/svg" xmlns:xlink="http://www.w3.org/1999/xlink">
<g id="graph0" class="graph" transform="scale(1 1) rotate(0) translate(4 280)">
<title>dependencies</title>
<polygon fill="#ffffff" stroke="transparent" points="-4,4 -4,-280 790,-280 790,4 -4,4"/>
<text text-anchor="start" x="372.0091" y="-42.4" font-family="sans-serif" font-weight="bold" font-size="14.00" fill="#000000">Legend</text>
<polygon fill="#ffffb3" stroke="transparent" points="159,-10 159,-30 179,-30 179,-10 159,-10"/>
<text text-anchor="start" x="182.629" y="-15.4" font-family="sans-serif" font-size="14.00" fill="#000000"> &#160;Declarations</text>
<polygon fill="#8dd3c7" stroke="transparent" points="272,-10 272,-30 292,-30 292,-10 272,-10"/>
<text text-anchor="start" x="295.7251" y="-15.4" font-family="sans-serif" font-size="14.00" fill="#000000"> &#160;Module</text>
<polygon fill="#80b1d3" stroke="transparent" points="358,-10 358,-30 378,-30 378,-10 358,-10"/>
<text text-anchor="start" x="381.7812" y="-15.4" font-family="sans-serif" font-size="14.00" fill="#000000"> &#160;Bootstrap</text>
<polygon fill="#fdb462" stroke="transparent" points="455,-10 455,-30 475,-30 475,-10 455,-10"/>
<text text-anchor="start" x="478.6732" y="-15.4" font-family="sans-serif" font-size="14.00" fill="#000000"> &#160;Providers</text>
<polygon fill="#fb8072" stroke="transparent" points="551,-10 551,-30 571,-30 571,-10 551,-10"/>
<text text-anchor="start" x="574.7258" y="-15.4" font-family="sans-serif" font-size="14.00" fill="#000000"> &#160;Exports</text>
<g id="clust1" class="cluster">
<title>cluster_AppModule</title>
<polygon fill="none" stroke="#000000" stroke-dasharray="1,5" points="8,-70 8,-268 778,-268 778,-70 8,-70"/>
</g>
<g id="clust2" class="cluster">
<title>cluster_AppModule_declarations</title>
<polygon fill="none" stroke="#000000" points="172,-78 172,-130 770,-130 770,-78 172,-78"/>
</g>
<g id="clust7" class="cluster">
<title>cluster_AppModule_imports</title>
<polygon fill="none" stroke="#000000" points="16,-78 16,-130 164,-130 164,-78 16,-78"/>
</g>
<g id="clust9" class="cluster">
<title>cluster_AppModule_bootstrap</title>
<polygon fill="none" stroke="#000000" points="358,-208 358,-260 482,-260 482,-208 358,-208"/>
</g>
<!-- AppComponent -->
<g id="node1" class="node">
<title>AppComponent</title>
<polygon fill="#ffffb3" stroke="#000000" points="761.9399,-122 656.0601,-122 656.0601,-86 761.9399,-86 761.9399,-122"/>
<text text-anchor="middle" x="709" y="-99.8" font-family="Times,serif" font-size="14.00" fill="#000000">AppComponent</text>
</g>
<!-- AppModule -->
<g id="node5" class="node">
<title>AppModule</title>
<polygon fill="#8dd3c7" stroke="#000000" points="461.6571,-187 458.6571,-191 437.6571,-191 434.6571,-187 378.3429,-187 378.3429,-151 461.6571,-151 461.6571,-187"/>
<text text-anchor="middle" x="420" y="-164.8" font-family="Times,serif" font-size="14.00" fill="#000000">AppModule</text>
</g>
<!-- AppComponent&#45;&gt;AppModule -->
<g id="edge1" class="edge">
<title>AppComponent&#45;&gt;AppModule</title>
<path fill="none" stroke="#000000" d="M709,-122.2843C709,-143.3211 709,-175 709,-175 709,-175 471.7144,-175 471.7144,-175"/>
<polygon fill="#000000" stroke="#000000" points="471.7145,-171.5001 461.7144,-175 471.7144,-178.5001 471.7145,-171.5001"/>
</g>
<!-- EditRowComponent -->
<g id="node2" class="node">
<title>EditRowComponent</title>
<polygon fill="#ffffb3" stroke="#000000" points="638.6094,-122 507.3906,-122 507.3906,-86 638.6094,-86 638.6094,-122"/>
<text text-anchor="middle" x="573" y="-99.8" font-family="Times,serif" font-size="14.00" fill="#000000">EditRowComponent</text>
</g>
<!-- EditRowComponent&#45;&gt;AppModule -->
<g id="edge2" class="edge">
<title>EditRowComponent&#45;&gt;AppModule</title>
<path fill="none" stroke="#000000" d="M573,-122.0225C573,-139.3734 573,-163 573,-163 573,-163 471.8079,-163 471.8079,-163"/>
<polygon fill="#000000" stroke="#000000" points="471.808,-159.5001 461.8079,-163 471.8079,-166.5001 471.808,-159.5001"/>
</g>
<!-- QuickAddComponent -->
<g id="node3" class="node">
<title>QuickAddComponent</title>
<polygon fill="#ffffb3" stroke="#000000" points="489.6512,-122 350.3488,-122 350.3488,-86 489.6512,-86 489.6512,-122"/>
<text text-anchor="middle" x="420" y="-99.8" font-family="Times,serif" font-size="14.00" fill="#000000">QuickAddComponent</text>
</g>
<!-- QuickAddComponent&#45;&gt;AppModule -->
<g id="edge3" class="edge">
<title>QuickAddComponent&#45;&gt;AppModule</title>
<path fill="none" stroke="#000000" d="M420,-122.1061C420,-122.1061 420,-140.991 420,-140.991"/>
<polygon fill="#000000" stroke="#000000" points="416.5001,-140.9909 420,-150.991 423.5001,-140.991 416.5001,-140.9909"/>
</g>
<!-- TransactionsComponent -->
<g id="node4" class="node">
<title>TransactionsComponent</title>
<polygon fill="#ffffb3" stroke="#000000" points="332.3599,-122 179.6401,-122 179.6401,-86 332.3599,-86 332.3599,-122"/>
<text text-anchor="middle" x="256" y="-99.8" font-family="Times,serif" font-size="14.00" fill="#000000">TransactionsComponent</text>
</g>
<!-- TransactionsComponent&#45;&gt;AppModule -->
<g id="edge4" class="edge">
<title>TransactionsComponent&#45;&gt;AppModule</title>
<path fill="none" stroke="#000000" d="M256,-122.0225C256,-139.3734 256,-163 256,-163 256,-163 368.1915,-163 368.1915,-163"/>
<polygon fill="#000000" stroke="#000000" points="368.1916,-166.5001 378.1915,-163 368.1915,-159.5001 368.1916,-166.5001"/>
</g>
<!-- AppComponent  -->
<g id="node7" class="node">
<title>AppComponent </title>
<polygon fill="#80b1d3" stroke="#000000" points="474.439,-252 365.561,-252 365.561,-216 474.439,-216 474.439,-252"/>
<text text-anchor="middle" x="420" y="-229.8" font-family="Times,serif" font-size="14.00" fill="#000000">AppComponent </text>
</g>
<!-- AppModule&#45;&gt;AppComponent  -->
<g id="edge6" class="edge">
<title>AppModule&#45;&gt;AppComponent </title>
<path fill="none" stroke="#000000" stroke-dasharray="1,5" d="M420,-187.1061C420,-187.1061 420,-205.991 420,-205.991"/>
<polygon fill="#000000" stroke="#000000" points="416.5001,-205.9909 420,-215.991 423.5001,-205.991 416.5001,-205.9909"/>
</g>
<!-- AppMaterialModule -->
<g id="node6" class="node">
<title>AppMaterialModule</title>
<polygon fill="#8dd3c7" stroke="#000000" points="155.5772,-122 152.5772,-126 131.5772,-126 128.5772,-122 24.4228,-122 24.4228,-86 155.5772,-86 155.5772,-122"/>
<text text-anchor="middle" x="90" y="-99.8" font-family="Times,serif" font-size="14.00" fill="#000000">AppMaterialModule</text>
</g>
<!-- AppMaterialModule&#45;&gt;AppModule -->
<g id="edge5" class="edge">
<title>AppMaterialModule&#45;&gt;AppModule</title>
<path fill="none" stroke="#000000" d="M90,-122.2843C90,-143.3211 90,-175 90,-175 90,-175 368.2053,-175 368.2053,-175"/>
<polygon fill="#000000" stroke="#000000" points="368.2053,-178.5001 378.2053,-175 368.2052,-171.5001 368.2053,-178.5001"/>
</g>
</g>
</svg>
